# MagicaVoxel @ Ephtracy

# group
o 

# material
mtllib shield.mtl
usemtl palette

# normals
vn -1 0 0
vn 1 0 0
vn 0 0 1
vn 0 0 -1
vn 0 -1 0
vn 0 1 0

# texcoords
vt 0.369141 0.5
vt 0.533203 0.5
vt 0.537109 0.5
vt 0.966797 0.5
vt 0.970703 0.5
vt 0.974609 0.5

# verts
v -0.5 0.6 0.2
v -0.5 0.6 0
v -0.5 0.8 0.2
v -0.5 0.8 0.1
v -0.5 1.4 0.2
v -0.5 1.4 0.1
v -0.5 1.4 0
v -0.5 1.6 0.2
v -0.5 1.6 0.1
v -0.5 1.6 0
v -0.4 0.4 0.2
v -0.4 0.4 0
v -0.4 0.6 0.2
v -0.4 0.6 0
v -0.4 0.6 -0.1
v -0.4 1.4 0
v -0.4 1.6 0.2
v -0.4 1.6 0.1
v -0.4 1.6 0
v -0.4 1.6 -0.1
v -0.4 1.7 0.2
v -0.4 1.7 0.1
v -0.4 1.7 0
v -0.3 0.3 0.2
v -0.3 0.3 0
v -0.3 0.4 0.2
v -0.3 0.4 0
v -0.3 0.4 -0.1
v -0.3 0.6 0
v -0.3 0.6 -0.1
v -0.3 0.9 0.2
v -0.3 0.9 0.1
v -0.3 1 0.2
v -0.3 1 0.1
v -0.3 1.3 0.2
v -0.3 1.3 0.1
v -0.3 1.4 0.2
v -0.3 1.4 0.1
v -0.2 0.2 0.2
v -0.2 0.2 0
v -0.2 0.3 0.2
v -0.2 0.3 0
v -0.2 0.3 -0.1
v -0.2 0.4 0
v -0.2 0.4 -0.1
v -0.2 1.1 -0.1
v -0.2 1.1 -0.2
v -0.2 1.1 -0.3
v -0.2 1.2 -0.1
v -0.2 1.2 -0.2
v -0.2 1.2 -0.3
v -0.1 0.3 0.2
v -0.1 0.3 0.1
v -0.1 0.6 0.2
v -0.1 0.6 0.1
v -0.1 0.9 0.2
v -0.1 0.9 0.1
v -0.1 1 0.1
v -0.1 1.1 0.2
v -0.1 1.1 0.1
v -0.1 1.2 0.2
v -0.1 1.2 0.1
v -0.1 1.4 0.2
v -0.1 1.4 0.1
v -0.1 1.5 0.1
v -0.1 1.6 0.2
v -0.1 1.6 0.1
v 0 0.6 -0.1
v 0 0.6 -0.2
v 0 0.6 -0.3
v 0 0.7 -0.1
v 0 0.7 -0.2
v 0 0.9 -0.1
v 0 0.9 -0.2
v 0 1 -0.1
v 0 1 -0.2
v 0 1 -0.3
v 0.1 1.1 -0.1
v 0.1 1.1 -0.2
v 0.1 1.2 -0.1
v 0.1 1.2 -0.2
v 0.2 0.3 0.2
v 0.2 0.3 0.1
v 0.2 0.4 0.2
v 0.2 0.4 0.1
v 0.2 0.9 0.2
v 0.2 0.9 0.1
v 0.2 1 0.2
v 0.2 1 0.1
v 0.2 1.3 0.2
v 0.2 1.3 0.1
v 0.2 1.4 0.2
v 0.2 1.4 0.1
v 0.3 0.4 0.2
v 0.3 0.4 0.1
v 0.3 0.6 0.2
v 0.3 0.6 0.1
v 0.4 0.6 0.2
v 0.4 0.6 0.1
v 0.4 0.9 0.2
v 0.4 0.9 0.1
v 0.4 1 0.1
v 0.4 1.1 0.2
v 0.4 1.1 0.1
v 0.4 1.2 0.2
v 0.4 1.2 0.1
v 0.4 1.5 0.1
v 0.4 1.6 0.2
v 0.4 1.6 0.1
v -0.4 0.6 0.2
v -0.4 0.6 0.1
v -0.4 0.8 0.2
v -0.4 0.8 0.1
v -0.4 1.1 0.2
v -0.4 1.1 0.1
v -0.4 1.2 0.2
v -0.4 1.2 0.1
v -0.4 1.4 0.2
v -0.4 1.4 0.1
v -0.4 1.6 0.2
v -0.4 1.6 0.1
v -0.3 0.4 0.2
v -0.3 0.4 0.1
v -0.3 0.6 0.2
v -0.3 0.6 0.1
v -0.2 0.3 0.2
v -0.2 0.3 0.1
v -0.2 0.4 0.2
v -0.2 0.4 0.1
v -0.2 0.9 0.2
v -0.2 0.9 0.1
v -0.2 1 0.2
v -0.2 1 0.1
v -0.2 1.3 0.2
v -0.2 1.3 0.1
v -0.2 1.4 0.2
v -0.2 1.4 0.1
v -0.1 1.1 -0.1
v -0.1 1.1 -0.2
v -0.1 1.2 -0.1
v -0.1 1.2 -0.2
v 0.1 0.3 0.2
v 0.1 0.3 0.1
v 0.1 0.5 0.2
v 0.1 0.5 0.1
v 0.1 0.6 -0.1
v 0.1 0.6 -0.2
v 0.1 0.6 -0.3
v 0.1 0.7 -0.1
v 0.1 0.7 -0.2
v 0.1 0.9 -0.1
v 0.1 0.9 -0.2
v 0.1 1 -0.1
v 0.1 1 -0.2
v 0.1 1 -0.3
v 0.1 1.1 0.2
v 0.1 1.1 0.1
v 0.1 1.2 0.2
v 0.1 1.2 0.1
v 0.1 1.6 0.2
v 0.1 1.6 0.1
v 0.2 0.2 0.2
v 0.2 0.2 0
v 0.2 0.3 0.2
v 0.2 0.3 0
v 0.2 0.3 -0.1
v 0.2 0.4 0
v 0.2 0.4 -0.1
v 0.2 1.1 -0.1
v 0.2 1.1 -0.2
v 0.2 1.1 -0.3
v 0.2 1.2 -0.1
v 0.2 1.2 -0.2
v 0.2 1.2 -0.3
v 0.3 0.3 0.2
v 0.3 0.3 0
v 0.3 0.4 0.2
v 0.3 0.4 0
v 0.3 0.4 -0.1
v 0.3 0.6 0
v 0.3 0.6 -0.1
v 0.3 0.9 0.2
v 0.3 0.9 0.1
v 0.3 1 0.2
v 0.3 1 0.1
v 0.3 1.3 0.2
v 0.3 1.3 0.1
v 0.3 1.4 0.2
v 0.3 1.4 0.1
v 0.4 0.4 0.2
v 0.4 0.4 0
v 0.4 0.6 0.2
v 0.4 0.6 0
v 0.4 0.6 -0.1
v 0.4 1.2 0
v 0.4 1.6 0.2
v 0.4 1.6 0
v 0.4 1.6 -0.1
v 0.4 1.7 0.2
v 0.4 1.7 0
v 0.5 0.6 0.2
v 0.5 0.6 0
v 0.5 0.9 0.2
v 0.5 0.9 0.1
v 0.5 1.1 0.2
v 0.5 1.1 0.1
v 0.5 1.2 0.2
v 0.5 1.2 0
v 0.5 1.6 0.2
v 0.5 1.6 0
v -0.5 0.6 0.2
v -0.5 0.8 0.2
v -0.5 1.4 0.2
v -0.5 1.6 0.2
v -0.4 0.4 0.2
v -0.4 0.6 0.2
v -0.4 0.8 0.2
v -0.4 1.1 0.2
v -0.4 1.2 0.2
v -0.4 1.4 0.2
v -0.4 1.6 0.2
v -0.4 1.7 0.2
v -0.3 0.3 0.2
v -0.3 0.4 0.2
v -0.3 0.6 0.2
v -0.3 0.9 0.2
v -0.3 1 0.2
v -0.3 1.3 0.2
v -0.3 1.4 0.2
v -0.2 0.2 0.2
v -0.2 0.3 0.2
v -0.2 0.4 0.2
v -0.2 0.9 0.2
v -0.2 1 0.2
v -0.2 1.1 0.2
v -0.2 1.2 0.2
v -0.2 1.3 0.2
v -0.2 1.4 0.2
v -0.2 1.6 0.2
v -0.2 1.7 0.2
v -0.1 0.2 0.2
v -0.1 0.3 0.2
v -0.1 0.6 0.2
v -0.1 0.9 0.2
v -0.1 1.1 0.2
v -0.1 1.2 0.2
v -0.1 1.4 0.2
v -0.1 1.6 0.2
v 0 0.3 0.2
v 0 0.5 0.2
v 0 0.6 0.2
v 0 0.9 0.2
v 0 1.4 0.2
v 0 1.6 0.2
v 0.1 0.3 0.2
v 0.1 0.5 0.2
v 0.1 1.1 0.2
v 0.1 1.2 0.2
v 0.1 1.6 0.2
v 0.1 1.7 0.2
v 0.2 0.2 0.2
v 0.2 0.3 0.2
v 0.2 0.4 0.2
v 0.2 0.9 0.2
v 0.2 1 0.2
v 0.2 1.3 0.2
v 0.2 1.4 0.2
v 0.3 0.3 0.2
v 0.3 0.4 0.2
v 0.3 0.6 0.2
v 0.3 0.9 0.2
v 0.3 1 0.2
v 0.3 1.1 0.2
v 0.3 1.2 0.2
v 0.3 1.3 0.2
v 0.3 1.4 0.2
v 0.4 0.4 0.2
v 0.4 0.6 0.2
v 0.4 0.9 0.2
v 0.4 1.1 0.2
v 0.4 1.2 0.2
v 0.4 1.6 0.2
v 0.4 1.7 0.2
v 0.5 0.6 0.2
v 0.5 0.9 0.2
v 0.5 1.1 0.2
v 0.5 1.2 0.2
v 0.5 1.6 0.2
v -0.4 0.6 0.1
v -0.4 0.8 0.1
v -0.4 1.1 0.1
v -0.4 1.2 0.1
v -0.4 1.4 0.1
v -0.4 1.6 0.1
v -0.3 0.4 0.1
v -0.3 0.6 0.1
v -0.3 0.9 0.1
v -0.3 1 0.1
v -0.3 1.2 0.1
v -0.3 1.3 0.1
v -0.3 1.4 0.1
v -0.3 1.5 0.1
v -0.2 0.3 0.1
v -0.2 0.4 0.1
v -0.2 0.9 0.1
v -0.2 1 0.1
v -0.2 1.1 0.1
v -0.2 1.2 0.1
v -0.2 1.3 0.1
v -0.2 1.4 0.1
v -0.2 1.6 0.1
v -0.1 0.3 0.1
v -0.1 0.6 0.1
v -0.1 0.9 0.1
v -0.1 1 0.1
v -0.1 1.1 0.1
v -0.1 1.2 0.1
v -0.1 1.4 0.1
v -0.1 1.5 0.1
v -0.1 1.6 0.1
v 0.1 0.3 0.1
v 0.1 0.5 0.1
v 0.1 1.1 0.1
v 0.1 1.2 0.1
v 0.1 1.6 0.1
v 0.2 0.3 0.1
v 0.2 0.4 0.1
v 0.2 0.9 0.1
v 0.2 1 0.1
v 0.2 1.2 0.1
v 0.2 1.3 0.1
v 0.2 1.4 0.1
v 0.2 1.5 0.1
v 0.3 0.4 0.1
v 0.3 0.6 0.1
v 0.3 0.9 0.1
v 0.3 1 0.1
v 0.3 1.1 0.1
v 0.3 1.2 0.1
v 0.3 1.3 0.1
v 0.3 1.4 0.1
v 0.4 0.6 0.1
v 0.4 0.9 0.1
v 0.4 1 0.1
v 0.4 1.1 0.1
v 0.4 1.2 0.1
v 0.4 1.5 0.1
v 0.4 1.6 0.1
v -0.1 1.1 -0.2
v -0.1 1.2 -0.2
v 0 0.7 -0.2
v 0 0.9 -0.2
v 0.1 0.7 -0.2
v 0.1 0.9 -0.2
v 0.1 1.1 -0.2
v 0.1 1.2 -0.2
v -0.5 0.6 0
v -0.5 1.4 0
v -0.5 1.6 0
v -0.4 0.4 0
v -0.4 0.6 0
v -0.4 1.4 0
v -0.4 1.6 0
v -0.4 1.7 0
v -0.3 0.3 0
v -0.3 0.4 0
v -0.3 0.6 0
v -0.2 0.2 0
v -0.2 0.3 0
v -0.2 0.4 0
v -0.2 1.6 0
v -0.2 1.7 0
v 0.1 0.2 0
v 0.1 0.3 0
v 0.2 0.2 0
v 0.2 0.3 0
v 0.2 0.4 0
v 0.3 0.3 0
v 0.3 0.4 0
v 0.3 0.6 0
v 0.4 0.4 0
v 0.4 0.6 0
v 0.4 1.2 0
v 0.4 1.6 0
v 0.4 1.7 0
v 0.5 0.6 0
v 0.5 1.2 0
v 0.5 1.6 0
v -0.4 0.6 -0.1
v -0.4 1.6 -0.1
v -0.3 0.4 -0.1
v -0.3 0.6 -0.1
v -0.2 0.3 -0.1
v -0.2 0.4 -0.1
v -0.2 1.1 -0.1
v -0.2 1.2 -0.1
v -0.1 1.1 -0.1
v -0.1 1.2 -0.1
v 0 0.6 -0.1
v 0 0.7 -0.1
v 0 0.9 -0.1
v 0 1 -0.1
v 0.1 0.6 -0.1
v 0.1 0.7 -0.1
v 0.1 0.9 -0.1
v 0.1 1 -0.1
v 0.1 1.1 -0.1
v 0.1 1.2 -0.1
v 0.2 0.3 -0.1
v 0.2 0.4 -0.1
v 0.2 1.1 -0.1
v 0.2 1.2 -0.1
v 0.3 0.4 -0.1
v 0.3 0.6 -0.1
v 0.4 0.6 -0.1
v 0.4 1.6 -0.1
v -0.2 1.1 -0.3
v -0.2 1.2 -0.3
v 0 0.6 -0.3
v 0 1 -0.3
v 0.1 0.6 -0.3
v 0.1 1 -0.3
v 0.2 1.1 -0.3
v 0.2 1.2 -0.3
v -0.2 0.2 0.2
v -0.1 0.2 0.2
v 0.2 0.2 0.2
v -0.1 0.2 0.1
v 0.1 0.2 0.1
v -0.2 0.2 0
v 0.1 0.2 0
v 0.2 0.2 0
v -0.3 0.3 0.2
v -0.2 0.3 0.2
v 0.2 0.3 0.2
v 0.3 0.3 0.2
v -0.3 0.3 0
v -0.2 0.3 0
v 0.1 0.3 0
v 0.2 0.3 0
v 0.3 0.3 0
v -0.2 0.3 -0.1
v 0.2 0.3 -0.1
v -0.4 0.4 0.2
v -0.3 0.4 0.2
v 0.3 0.4 0.2
v 0.4 0.4 0.2
v -0.4 0.4 0
v -0.3 0.4 0
v -0.2 0.4 0
v 0.2 0.4 0
v 0.3 0.4 0
v 0.4 0.4 0
v -0.3 0.4 -0.1
v -0.2 0.4 -0.1
v 0.2 0.4 -0.1
v 0.3 0.4 -0.1
v -0.5 0.6 0.2
v -0.4 0.6 0.2
v 0.4 0.6 0.2
v 0.5 0.6 0.2
v -0.5 0.6 0
v -0.4 0.6 0
v -0.3 0.6 0
v 0.3 0.6 0
v 0.4 0.6 0
v 0.5 0.6 0
v -0.4 0.6 -0.1
v -0.3 0.6 -0.1
v 0 0.6 -0.1
v 0.1 0.6 -0.1
v 0.3 0.6 -0.1
v 0.4 0.6 -0.1
v 0 0.6 -0.2
v 0.1 0.6 -0.2
v 0 0.6 -0.3
v 0.1 0.6 -0.3
v -0.3 0.9 0.2
v -0.2 0.9 0.2
v 0.2 0.9 0.2
v 0.3 0.9 0.2
v -0.3 0.9 0.1
v -0.2 0.9 0.1
v 0.2 0.9 0.1
v 0.3 0.9 0.1
v 0 0.9 -0.1
v 0.1 0.9 -0.1
v 0 0.9 -0.2
v 0.1 0.9 -0.2
v -0.4 1.1 0.2
v -0.2 1.1 0.2
v -0.1 1.1 0.2
v 0.1 1.1 0.2
v 0.3 1.1 0.2
v 0.4 1.1 0.2
v -0.4 1.1 0.1
v -0.2 1.1 0.1
v -0.1 1.1 0.1
v 0.1 1.1 0.1
v 0.3 1.1 0.1
v 0.4 1.1 0.1
v -0.2 1.1 -0.1
v -0.1 1.1 -0.1
v 0.1 1.1 -0.1
v 0.2 1.1 -0.1
v -0.2 1.1 -0.2
v -0.1 1.1 -0.2
v 0.1 1.1 -0.2
v 0.2 1.1 -0.2
v -0.2 1.1 -0.3
v 0.2 1.1 -0.3
v -0.3 1.3 0.2
v -0.2 1.3 0.2
v 0.2 1.3 0.2
v 0.3 1.3 0.2
v -0.3 1.3 0.1
v -0.2 1.3 0.1
v 0.2 1.3 0.1
v 0.3 1.3 0.1
v -0.4 1.6 0.2
v -0.2 1.6 0.2
v -0.1 1.6 0.2
v 0.1 1.6 0.2
v 0.4 1.6 0.2
v -0.4 1.6 0.1
v -0.2 1.6 0.1
v -0.1 1.6 0.1
v 0.1 1.6 0.1
v 0.4 1.6 0.1
v -0.2 0.3 0.2
v -0.1 0.3 0.2
v 0.1 0.3 0.2
v 0.2 0.3 0.2
v -0.2 0.3 0.1
v -0.1 0.3 0.1
v 0.1 0.3 0.1
v 0.2 0.3 0.1
v -0.3 0.4 0.2
v -0.2 0.4 0.2
v 0.2 0.4 0.2
v 0.3 0.4 0.2
v -0.3 0.4 0.1
v -0.2 0.4 0.1
v 0.2 0.4 0.1
v 0.3 0.4 0.1
v -0.4 0.6 0.2
v -0.3 0.6 0.2
v 0.3 0.6 0.2
v 0.4 0.6 0.2
v -0.4 0.6 0.1
v -0.3 0.6 0.1
v 0.3 0.6 0.1
v 0.4 0.6 0.1
v 0 0.7 -0.1
v 0.1 0.7 -0.1
v 0 0.7 -0.2
v 0.1 0.7 -0.2
v -0.3 1 0.2
v -0.2 1 0.2
v 0.2 1 0.2
v 0.3 1 0.2
v -0.3 1 0.1
v -0.2 1 0.1
v 0.2 1 0.1
v 0.3 1 0.1
v 0 1 -0.1
v 0.1 1 -0.1
v 0 1 -0.2
v 0.1 1 -0.2
v 0 1 -0.3
v 0.1 1 -0.3
v -0.4 1.2 0.2
v -0.2 1.2 0.2
v -0.1 1.2 0.2
v 0.1 1.2 0.2
v 0.3 1.2 0.2
v 0.4 1.2 0.2
v -0.4 1.2 0.1
v -0.3 1.2 0.1
v -0.2 1.2 0.1
v -0.1 1.2 0.1
v 0.1 1.2 0.1
v 0.2 1.2 0.1
v 0.3 1.2 0.1
v 0.4 1.2 0.1
v -0.2 1.2 -0.1
v -0.1 1.2 -0.1
v 0.1 1.2 -0.1
v 0.2 1.2 -0.1
v -0.2 1.2 -0.2
v -0.1 1.2 -0.2
v 0.1 1.2 -0.2
v 0.2 1.2 -0.2
v -0.2 1.2 -0.3
v 0.2 1.2 -0.3
v -0.3 1.4 0.2
v -0.2 1.4 0.2
v 0.2 1.4 0.2
v 0.3 1.4 0.2
v -0.3 1.4 0.1
v -0.2 1.4 0.1
v 0.2 1.4 0.1
v 0.3 1.4 0.1
v -0.5 1.6 0.2
v -0.4 1.6 0.2
v 0.4 1.6 0.2
v 0.5 1.6 0.2
v -0.5 1.6 0.1
v -0.4 1.6 0.1
v -0.5 1.6 0
v -0.4 1.6 0
v -0.2 1.6 0
v 0.4 1.6 0
v 0.5 1.6 0
v -0.4 1.6 -0.1
v 0.4 1.6 -0.1
v -0.4 1.7 0.2
v -0.2 1.7 0.2
v 0.1 1.7 0.2
v 0.4 1.7 0.2
v -0.4 1.7 0.1
v -0.2 1.7 0.1
v 0.1 1.7 0.1
v -0.4 1.7 0
v -0.2 1.7 0
v 0.4 1.7 0

# faces
f 3/5/1 2/5/1 1/5/1
f 4/5/1 2/5/1 3/5/1
f 5/4/1 4/4/1 3/4/1
f 6/5/1 2/5/1 4/5/1
f 6/4/1 4/4/1 5/4/1
f 7/5/1 2/5/1 6/5/1
f 8/5/1 6/5/1 5/5/1
f 9/4/1 7/4/1 6/4/1
f 9/5/1 6/5/1 8/5/1
f 10/4/1 7/4/1 9/4/1
f 13/5/1 12/5/1 11/5/1
f 14/5/1 12/5/1 13/5/1
f 16/5/1 15/5/1 14/5/1
f 19/5/1 15/5/1 16/5/1
f 20/5/1 15/5/1 19/5/1
f 21/5/1 18/5/1 17/5/1
f 22/4/1 19/4/1 18/4/1
f 22/5/1 18/5/1 21/5/1
f 23/4/1 19/4/1 22/4/1
f 26/5/1 25/5/1 24/5/1
f 27/5/1 25/5/1 26/5/1
f 29/5/1 28/5/1 27/5/1
f 30/5/1 28/5/1 29/5/1
f 33/4/1 32/4/1 31/4/1
f 34/4/1 32/4/1 33/4/1
f 37/5/1 36/5/1 35/5/1
f 38/5/1 36/5/1 37/5/1
f 41/5/1 40/5/1 39/5/1
f 42/5/1 40/5/1 41/5/1
f 44/5/1 43/5/1 42/5/1
f 45/5/1 43/5/1 44/5/1
f 49/5/1 47/5/1 46/5/1
f 50/2/1 48/2/1 47/2/1
f 50/5/1 47/5/1 49/5/1
f 51/2/1 48/2/1 50/2/1
f 54/5/1 53/5/1 52/5/1
f 55/5/1 53/5/1 54/5/1
f 56/4/1 55/4/1 54/4/1
f 57/4/1 55/4/1 56/4/1
f 58/5/1 57/5/1 56/5/1
f 59/5/1 58/5/1 56/5/1
f 60/5/1 58/5/1 59/5/1
f 63/5/1 62/5/1 61/5/1
f 64/5/1 62/5/1 63/5/1
f 65/4/1 64/4/1 63/4/1
f 66/4/1 65/4/1 63/4/1
f 67/4/1 65/4/1 66/4/1
f 71/5/1 69/5/1 68/5/1
f 72/2/1 70/2/1 69/2/1
f 72/5/1 69/5/1 71/5/1
f 74/2/1 70/2/1 72/2/1
f 75/5/1 74/5/1 73/5/1
f 76/2/1 70/2/1 74/2/1
f 76/5/1 74/5/1 75/5/1
f 77/2/1 70/2/1 76/2/1
f 80/5/1 79/5/1 78/5/1
f 81/5/1 79/5/1 80/5/1
f 84/6/1 83/6/1 82/6/1
f 85/6/1 83/6/1 84/6/1
f 88/5/1 87/5/1 86/5/1
f 89/5/1 87/5/1 88/5/1
f 92/4/1 91/4/1 90/4/1
f 93/4/1 91/4/1 92/4/1
f 96/6/1 95/6/1 94/6/1
f 97/6/1 95/6/1 96/6/1
f 100/6/1 99/6/1 98/6/1
f 101/6/1 99/6/1 100/6/1
f 102/5/1 101/5/1 100/5/1
f 103/5/1 102/5/1 100/5/1
f 104/5/1 102/5/1 103/5/1
f 107/5/1 106/5/1 105/5/1
f 108/5/1 107/5/1 105/5/1
f 109/5/1 107/5/1 108/5/1
f 110/5/2 111/5/2 112/5/2
f 112/5/2 111/5/2 113/5/2
f 112/4/2 113/4/2 114/4/2
f 114/4/2 113/4/2 115/4/2
f 116/4/2 117/4/2 118/4/2
f 118/4/2 117/4/2 119/4/2
f 118/5/2 119/5/2 120/5/2
f 120/5/2 119/5/2 121/5/2
f 122/5/2 123/5/2 124/5/2
f 124/5/2 123/5/2 125/5/2
f 126/5/2 127/5/2 128/5/2
f 128/5/2 127/5/2 129/5/2
f 130/4/2 131/4/2 132/4/2
f 132/4/2 131/4/2 133/4/2
f 134/5/2 135/5/2 136/5/2
f 136/5/2 135/5/2 137/5/2
f 138/5/2 139/5/2 140/5/2
f 140/5/2 139/5/2 141/5/2
f 142/6/2 143/6/2 144/6/2
f 144/6/2 143/6/2 145/6/2
f 146/5/2 147/5/2 149/5/2
f 147/2/2 148/2/2 150/2/2
f 149/5/2 147/5/2 150/5/2
f 150/2/2 148/2/2 152/2/2
f 151/5/2 152/5/2 153/5/2
f 152/2/2 148/2/2 154/2/2
f 153/5/2 152/5/2 154/5/2
f 154/2/2 148/2/2 155/2/2
f 144/5/2 145/5/2 156/5/2
f 156/5/2 145/5/2 157/5/2
f 158/5/2 159/5/2 160/5/2
f 160/5/2 159/5/2 161/5/2
f 162/6/2 163/6/2 164/6/2
f 164/6/2 163/6/2 165/6/2
f 165/5/2 166/5/2 167/5/2
f 167/5/2 166/5/2 168/5/2
f 169/5/2 170/5/2 172/5/2
f 170/2/2 171/2/2 173/2/2
f 172/5/2 170/5/2 173/5/2
f 173/2/2 171/2/2 174/2/2
f 175/6/2 176/6/2 177/6/2
f 177/6/2 176/6/2 178/6/2
f 178/5/2 179/5/2 180/5/2
f 180/5/2 179/5/2 181/5/2
f 182/5/2 183/5/2 184/5/2
f 184/5/2 183/5/2 185/5/2
f 186/4/2 187/4/2 188/4/2
f 188/4/2 187/4/2 189/4/2
f 190/6/2 191/6/2 192/6/2
f 192/6/2 191/6/2 193/6/2
f 193/5/2 194/5/2 195/5/2
f 195/5/2 194/5/2 197/5/2
f 197/5/2 194/5/2 198/5/2
f 196/5/2 197/5/2 199/5/2
f 199/5/2 197/5/2 200/5/2
f 201/6/2 202/6/2 203/6/2
f 203/6/2 202/6/2 204/6/2
f 203/5/2 204/5/2 205/5/2
f 204/6/2 202/6/2 206/6/2
f 205/5/2 204/5/2 206/5/2
f 205/6/2 206/6/2 207/6/2
f 206/6/2 202/6/2 208/6/2
f 207/6/2 206/6/2 208/6/2
f 207/5/2 208/5/2 209/5/2
f 209/5/2 208/5/2 210/5/2
f 216/5/3 212/5/3 211/5/3
f 217/4/3 213/4/3 212/4/3
f 217/5/3 212/5/3 216/5/3
f 218/4/3 213/4/3 217/4/3
f 219/4/3 213/4/3 218/4/3
f 220/5/3 214/5/3 213/5/3
f 220/4/3 213/4/3 219/4/3
f 221/5/3 214/5/3 220/5/3
f 224/5/3 216/5/3 215/5/3
f 225/5/3 216/5/3 224/5/3
f 231/5/3 224/5/3 223/5/3
f 232/5/3 224/5/3 231/5/3
f 233/4/3 227/4/3 226/4/3
f 234/4/3 227/4/3 233/4/3
f 235/5/3 219/5/3 218/5/3
f 236/5/3 219/5/3 235/5/3
f 237/5/3 229/5/3 228/5/3
f 238/5/3 229/5/3 237/5/3
f 239/5/3 222/5/3 221/5/3
f 240/5/3 222/5/3 239/5/3
f 241/5/3 231/5/3 230/5/3
f 242/5/3 231/5/3 241/5/3
f 245/4/3 236/4/3 235/4/3
f 246/4/3 236/4/3 245/4/3
f 248/4/3 240/4/3 239/4/3
f 249/6/3 242/6/3 241/6/3
f 249/5/3 243/5/3 242/5/3
f 250/5/3 243/5/3 249/5/3
f 251/4/3 244/4/3 243/4/3
f 251/5/3 243/5/3 250/5/3
f 252/5/3 245/5/3 244/5/3
f 252/4/3 244/4/3 251/4/3
f 253/5/3 247/5/3 246/5/3
f 253/4/3 248/4/3 247/4/3
f 254/4/3 240/4/3 248/4/3
f 254/4/3 248/4/3 253/4/3
f 255/6/3 250/6/3 249/6/3
f 255/6/3 249/6/3 241/6/3
f 256/5/3 252/5/3 251/5/3
f 256/6/3 250/6/3 255/6/3
f 256/5/3 251/5/3 250/5/3
f 257/5/3 245/5/3 252/5/3
f 257/5/3 252/5/3 256/5/3
f 257/4/3 246/4/3 245/4/3
f 258/5/3 253/5/3 246/5/3
f 258/4/3 246/4/3 257/4/3
f 258/5/3 254/5/3 253/5/3
f 259/4/3 240/4/3 254/4/3
f 259/5/3 254/5/3 258/5/3
f 260/4/3 240/4/3 259/4/3
f 261/6/3 255/6/3 241/6/3
f 262/6/3 255/6/3 261/6/3
f 268/6/3 263/6/3 262/6/3
f 269/6/3 263/6/3 268/6/3
f 271/5/3 265/5/3 264/5/3
f 272/5/3 265/5/3 271/5/3
f 273/5/3 258/5/3 257/5/3
f 274/5/3 258/5/3 273/5/3
f 275/4/3 267/4/3 266/4/3
f 276/4/3 267/4/3 275/4/3
f 277/6/3 270/6/3 269/6/3
f 278/6/3 270/6/3 277/6/3
f 280/6/3 274/6/3 273/6/3
f 281/6/3 274/6/3 280/6/3
f 282/5/3 260/5/3 259/5/3
f 283/5/3 260/5/3 282/5/3
f 284/6/3 279/6/3 278/6/3
f 285/5/3 280/5/3 279/5/3
f 285/6/3 279/6/3 284/6/3
f 286/6/3 281/6/3 280/6/3
f 286/5/3 280/5/3 285/5/3
f 287/5/3 282/5/3 281/5/3
f 287/6/3 281/6/3 286/6/3
f 288/5/3 282/5/3 287/5/3
f 296/3/3 290/3/3 289/3/3
f 296/3/3 291/3/3 290/3/3
f 297/3/3 291/3/3 296/3/3
f 298/3/3 291/3/3 297/3/3
f 299/3/3 294/3/3 293/3/3
f 299/3/3 293/3/3 292/3/3
f 300/3/3 294/3/3 299/3/3
f 301/3/3 294/3/3 300/3/3
f 302/3/3 294/3/3 301/3/3
f 304/2/3 296/2/3 295/2/3
f 304/2/3 297/2/3 296/2/3
f 305/2/3 297/2/3 304/2/3
f 306/3/3 291/3/3 298/3/3
f 307/3/3 291/3/3 306/3/3
f 308/2/3 300/2/3 299/2/3
f 309/2/3 300/2/3 308/2/3
f 310/2/3 302/2/3 301/2/3
f 311/3/3 294/3/3 302/3/3
f 312/2/3 305/2/3 304/2/3
f 312/2/3 304/2/3 303/2/3
f 312/2/3 306/2/3 305/2/3
f 313/2/3 306/2/3 312/2/3
f 314/2/3 306/2/3 313/2/3
f 315/3/3 307/3/3 306/3/3
f 315/2/3 306/2/3 314/2/3
f 316/3/3 307/3/3 315/3/3
f 317/2/3 310/2/3 309/2/3
f 317/2/3 309/2/3 308/2/3
f 318/2/3 302/2/3 310/2/3
f 318/2/3 310/2/3 317/2/3
f 319/3/3 311/3/3 302/3/3
f 319/2/3 302/2/3 318/2/3
f 320/3/3 311/3/3 319/3/3
f 326/3/3 322/3/3 321/3/3
f 326/3/3 323/3/3 322/3/3
f 327/3/3 323/3/3 326/3/3
f 328/3/3 323/3/3 327/3/3
f 329/3/3 323/3/3 328/3/3
f 330/3/3 325/3/3 324/3/3
f 331/3/3 325/3/3 330/3/3
f 332/3/3 325/3/3 331/3/3
f 333/3/3 325/3/3 332/3/3
f 334/2/3 328/2/3 327/2/3
f 335/2/3 328/2/3 334/2/3
f 336/2/3 328/2/3 335/2/3
f 337/3/3 323/3/3 329/3/3
f 338/3/3 323/3/3 337/3/3
f 339/2/3 331/2/3 330/2/3
f 340/2/3 331/2/3 339/2/3
f 341/2/3 333/2/3 332/2/3
f 342/2/3 336/2/3 335/2/3
f 342/2/3 337/2/3 336/2/3
f 343/2/3 337/2/3 342/2/3
f 344/3/3 338/3/3 337/3/3
f 344/2/3 337/2/3 343/2/3
f 345/3/3 338/3/3 344/3/3
f 346/2/3 341/2/3 340/2/3
f 346/2/3 340/2/3 339/2/3
f 347/3/3 325/3/3 333/3/3
f 347/2/3 341/2/3 346/2/3
f 347/2/3 333/2/3 341/2/3
f 348/3/3 325/3/3 347/3/3
f 353/2/3 352/2/3 351/2/3
f 354/2/3 352/2/3 353/2/3
f 355/2/3 350/2/3 349/2/3
f 356/2/3 350/2/3 355/2/3
f 357/5/4 358/5/4 361/5/4
f 358/4/4 359/4/4 362/4/4
f 361/5/4 358/5/4 362/5/4
f 362/4/4 359/4/4 363/4/4
f 360/5/4 361/5/4 366/5/4
f 366/5/4 361/5/4 367/5/4
f 365/5/4 366/5/4 369/5/4
f 369/5/4 366/5/4 370/5/4
f 363/4/4 364/4/4 371/4/4
f 371/4/4 364/4/4 372/4/4
f 368/5/4 369/5/4 373/5/4
f 373/5/4 369/5/4 374/5/4
f 373/6/4 374/6/4 375/6/4
f 375/6/4 374/6/4 376/6/4
f 376/6/4 377/6/4 378/6/4
f 378/6/4 377/6/4 379/6/4
f 379/6/4 380/6/4 381/6/4
f 381/6/4 380/6/4 382/6/4
f 371/5/4 372/5/4 384/5/4
f 384/5/4 372/5/4 385/5/4
f 382/6/4 383/6/4 386/6/4
f 383/5/4 384/5/4 387/5/4
f 386/6/4 383/6/4 387/6/4
f 387/5/4 384/5/4 388/5/4
f 389/5/4 390/5/4 392/5/4
f 391/5/4 392/5/4 394/5/4
f 392/5/4 390/5/4 395/5/4
f 394/5/4 392/5/4 395/5/4
f 395/5/4 390/5/4 396/5/4
f 393/5/4 394/5/4 397/5/4
f 394/5/4 395/5/4 397/5/4
f 396/5/4 390/5/4 398/5/4
f 393/5/4 397/5/4 399/5/4
f 397/5/4 398/5/4 399/5/4
f 399/5/4 398/5/4 400/5/4
f 400/5/4 398/5/4 401/5/4
f 401/5/4 398/5/4 402/5/4
f 393/5/4 399/5/4 403/5/4
f 400/5/4 401/5/4 404/5/4
f 404/5/4 401/5/4 405/5/4
f 402/5/4 398/5/4 406/5/4
f 406/5/4 398/5/4 407/5/4
f 398/5/4 390/5/4 408/5/4
f 407/5/4 398/5/4 408/5/4
f 406/5/4 407/5/4 409/5/4
f 404/5/4 405/5/4 409/5/4
f 405/5/4 406/5/4 409/5/4
f 393/5/4 403/5/4 409/5/4
f 403/5/4 404/5/4 409/5/4
f 409/5/4 407/5/4 410/5/4
f 410/5/4 407/5/4 411/5/4
f 408/5/4 390/5/4 412/5/4
f 410/5/4 411/5/4 413/5/4
f 411/5/4 412/5/4 413/5/4
f 413/5/4 412/5/4 414/5/4
f 414/5/4 412/5/4 415/5/4
f 412/5/4 390/5/4 416/5/4
f 415/5/4 412/5/4 416/5/4
f 419/2/4 420/2/4 421/2/4
f 421/2/4 420/2/4 422/2/4
f 417/2/4 418/2/4 423/2/4
f 423/2/4 418/2/4 424/2/4
f 428/5/5 426/5/5 425/5/5
f 428/6/5 427/6/5 426/6/5
f 429/6/5 427/6/5 428/6/5
f 430/5/5 428/5/5 425/5/5
f 430/5/5 429/5/5 428/5/5
f 431/6/5 427/6/5 429/6/5
f 431/5/5 429/5/5 430/5/5
f 432/6/5 427/6/5 431/6/5
f 437/5/5 434/5/5 433/5/5
f 438/5/5 434/5/5 437/5/5
f 440/6/5 436/6/5 435/6/5
f 441/6/5 436/6/5 440/6/5
f 442/5/5 439/5/5 438/5/5
f 442/5/5 440/5/5 439/5/5
f 443/5/5 440/5/5 442/5/5
f 448/5/5 445/5/5 444/5/5
f 449/5/5 445/5/5 448/5/5
f 452/6/5 447/6/5 446/6/5
f 453/6/5 447/6/5 452/6/5
f 454/5/5 450/5/5 449/5/5
f 455/5/5 450/5/5 454/5/5
f 456/5/5 452/5/5 451/5/5
f 457/5/5 452/5/5 456/5/5
f 462/5/5 459/5/5 458/5/5
f 463/5/5 459/5/5 462/5/5
f 466/6/5 461/6/5 460/6/5
f 467/6/5 461/6/5 466/6/5
f 468/5/5 464/5/5 463/5/5
f 469/5/5 464/5/5 468/5/5
f 472/5/5 466/5/5 465/5/5
f 473/5/5 466/5/5 472/5/5
f 474/5/5 471/5/5 470/5/5
f 475/5/5 471/5/5 474/5/5
f 476/2/5 475/2/5 474/2/5
f 477/2/5 475/2/5 476/2/5
f 482/4/5 479/4/5 478/4/5
f 483/4/5 479/4/5 482/4/5
f 484/5/5 481/5/5 480/5/5
f 485/5/5 481/5/5 484/5/5
f 488/5/5 487/5/5 486/5/5
f 489/5/5 487/5/5 488/5/5
f 496/5/5 491/5/5 490/5/5
f 497/4/5 492/4/5 491/4/5
f 497/5/5 491/5/5 496/5/5
f 498/4/5 492/4/5 497/4/5
f 499/5/5 494/5/5 493/5/5
f 500/6/5 495/6/5 494/6/5
f 500/5/5 494/5/5 499/5/5
f 501/6/5 495/6/5 500/6/5
f 506/5/5 503/5/5 502/5/5
f 507/5/5 503/5/5 506/5/5
f 508/5/5 505/5/5 504/5/5
f 509/5/5 505/5/5 508/5/5
f 510/2/5 507/2/5 506/2/5
f 510/2/5 508/2/5 507/2/5
f 510/2/5 509/2/5 508/2/5
f 511/2/5 509/2/5 510/2/5
f 516/5/5 513/5/5 512/5/5
f 517/5/5 513/5/5 516/5/5
f 518/4/5 515/4/5 514/4/5
f 519/4/5 515/4/5 518/4/5
f 525/5/5 521/5/5 520/5/5
f 526/4/5 522/4/5 521/4/5
f 526/5/5 521/5/5 525/5/5
f 527/4/5 522/4/5 526/4/5
f 528/5/5 524/5/5 523/5/5
f 529/5/5 524/5/5 528/5/5
f 530/5/6 531/5/6 534/5/6
f 534/5/6 531/5/6 535/5/6
f 532/6/6 533/6/6 536/6/6
f 536/6/6 533/6/6 537/6/6
f 538/5/6 539/5/6 542/5/6
f 542/5/6 539/5/6 543/5/6
f 540/6/6 541/6/6 544/6/6
f 544/6/6 541/6/6 545/6/6
f 546/5/6 547/5/6 550/5/6
f 550/5/6 547/5/6 551/5/6
f 548/6/6 549/6/6 552/6/6
f 552/6/6 549/6/6 553/6/6
f 554/5/6 555/5/6 556/5/6
f 556/5/6 555/5/6 557/5/6
f 558/4/6 559/4/6 562/4/6
f 562/4/6 559/4/6 563/4/6
f 560/5/6 561/5/6 564/5/6
f 564/5/6 561/5/6 565/5/6
f 566/5/6 567/5/6 568/5/6
f 568/5/6 567/5/6 569/5/6
f 568/2/6 569/2/6 570/2/6
f 570/2/6 569/2/6 571/2/6
f 572/5/6 573/5/6 578/5/6
f 578/5/6 573/5/6 579/5/6
f 573/4/6 574/4/6 580/4/6
f 579/5/6 573/5/6 580/5/6
f 580/4/6 574/4/6 581/4/6
f 575/5/6 576/5/6 582/5/6
f 582/5/6 576/5/6 583/5/6
f 576/6/6 577/6/6 584/6/6
f 583/5/6 576/5/6 584/5/6
f 584/6/6 577/6/6 585/6/6
f 586/5/6 587/5/6 590/5/6
f 590/5/6 587/5/6 591/5/6
f 588/5/6 589/5/6 592/5/6
f 592/5/6 589/5/6 593/5/6
f 590/2/6 591/2/6 594/2/6
f 591/2/6 592/2/6 594/2/6
f 592/2/6 593/2/6 594/2/6
f 594/2/6 593/2/6 595/2/6
f 596/5/6 597/5/6 600/5/6
f 600/5/6 597/5/6 601/5/6
f 598/4/6 599/4/6 602/4/6
f 602/4/6 599/4/6 603/4/6
f 604/5/6 605/5/6 608/5/6
f 608/5/6 605/5/6 609/5/6
f 608/4/6 609/4/6 610/4/6
f 610/4/6 609/4/6 611/4/6
f 606/5/6 607/5/6 613/5/6
f 613/5/6 607/5/6 614/5/6
f 611/5/6 612/5/6 615/5/6
f 612/5/6 613/5/6 615/5/6
f 615/5/6 613/5/6 616/5/6
f 617/5/6 618/5/6 621/5/6
f 618/4/6 619/4/6 622/4/6
f 621/5/6 618/5/6 622/5/6
f 619/5/6 620/5/6 623/5/6
f 622/4/6 619/4/6 623/4/6
f 621/4/6 622/4/6 624/4/6
f 622/5/6 623/5/6 625/5/6
f 624/4/6 622/4/6 625/4/6
f 623/5/6 620/5/6 626/5/6
f 625/5/6 623/5/6 626/5/6
